<svg width="1024" height="1024" viewBox="0 0 1024 1024" fill="none" xmlns="http://www.w3.org/2000/svg">
  <defs>
    <linearGradient id="bg" x1="164" y1="128" x2="856" y2="900" gradientUnits="userSpaceOnUse">
      <stop stop-color="#F6C3B0"/>
      <stop offset="0.48" stop-color="#D86A72"/>
      <stop offset="1" stop-color="#7F2744"/>
    </linearGradient>
    <radialGradient id="glow" cx="0" cy="0" r="1" gradientUnits="userSpaceOnUse" gradientTransform="translate(380 288) rotate(53.7) scale(482 511)">
      <stop stop-color="#FFF5EF" stop-opacity="0.5"/>
      <stop offset="1" stop-color="#FFF5EF" stop-opacity="0"/>
    </radialGradient>
    <filter id="shadow" x="180" y="170" width="664" height="664" filterUnits="userSpaceOnUse" color-interpolation-filters="sRGB">
      <feFlood flood-opacity="0" result="BackgroundImageFix"/>
      <feColorMatrix in="SourceAlpha" type="matrix" values="0 0 0 0 0 0 0 0 0 0 0 0 0 0 0 0 0 0 127 0" result="hardAlpha"/>
      <feOffset dy="26"/>
      <feGaussianBlur stdDeviation="28"/>
      <feComposite in2="hardAlpha" operator="out"/>
      <feColorMatrix type="matrix" values="0 0 0 0 0.365 0 0 0 0 0.12 0 0 0 0 0.2 0 0 0 0.22 0"/>
      <feBlend mode="normal" in2="BackgroundImageFix" result="effect1_dropShadow_1_1"/>
      <feBlend mode="normal" in="SourceGraphic" in2="effect1_dropShadow_1_1" result="shape"/>
    </filter>
  </defs>

  <rect x="72" y="72" width="880" height="880" rx="224" fill="url(#bg)"/>
  <rect x="72" y="72" width="880" height="880" rx="224" fill="url(#glow)"/>

  <circle cx="756" cy="254" r="74" fill="#FFF8F2" fill-opacity="0.16"/>
  <circle cx="264" cy="794" r="108" fill="#FFF8F2" fill-opacity="0.1"/>

  <g filter="url(#shadow)">
    <circle cx="512" cy="512" r="226" fill="#FFF7F1"/>
    <circle cx="512" cy="512" r="176" fill="#FCE9E0"/>
    <path d="M512 352C512 352 430 468 430 552C430 616 466 672 512 672C558 672 594 616 594 552C594 468 512 352 512 352Z" fill="#B83C58"/>
    <path d="M510 410C510 410 464 478 464 540C464 589 491 627 528 627C554 627 577 608 589 576C574 604 544 612 525 612C489 612 468 579 468 538C468 496 492 450 510 410Z" fill="#F6C7B6" fill-opacity="0.72"/>
    <path d="M623 382C609 352 581 326 538 312C634 298 718 356 754 447C720 429 677 425 642 439C657 418 655 397 623 382Z" fill="#FFF7F1"/>
    <circle cx="664" cy="358" r="22" fill="#FFF7F1"/>
  </g>
</svg>
