<svg width="1600" height="900" viewBox="0 0 1600 900" fill="none" xmlns="http://www.w3.org/2000/svg">
  <defs>
    <linearGradient id="bg" x1="128" y1="72" x2="1460" y2="836" gradientUnits="userSpaceOnUse">
      <stop stop-color="#FFF7F2"/>
      <stop offset="0.55" stop-color="#F8E6DD"/>
      <stop offset="1" stop-color="#F3D6CE"/>
    </linearGradient>
    <linearGradient id="accent" x1="296" y1="124" x2="1226" y2="742" gradientUnits="userSpaceOnUse">
      <stop stop-color="#7F2744"/>
      <stop offset="1" stop-color="#D86A72"/>
    </linearGradient>
    <radialGradient id="glowA" cx="0" cy="0" r="1" gradientUnits="userSpaceOnUse" gradientTransform="translate(1342 160) rotate(146.288) scale(372.278 244.131)">
      <stop stop-color="#7F2744" stop-opacity="0.20"/>
      <stop offset="1" stop-color="#7F2744" stop-opacity="0"/>
    </radialGradient>
    <radialGradient id="glowB" cx="0" cy="0" r="1" gradientUnits="userSpaceOnUse" gradientTransform="translate(350 780) rotate(-17.205) scale(445.428 250.744)">
      <stop stop-color="#E6B2A3"/>
      <stop offset="1" stop-color="#E6B2A3" stop-opacity="0"/>
    </radialGradient>
  </defs>

  <rect width="1600" height="900" rx="40" fill="url(#bg)"/>
  <rect x="42" y="42" width="1516" height="816" rx="32" stroke="#7F2744" stroke-opacity="0.08" stroke-width="2"/>
  <circle cx="1342" cy="160" r="320" fill="url(#glowA)"/>
  <circle cx="350" cy="780" r="270" fill="url(#glowB)"/>

  <rect x="112" y="96" width="180" height="40" rx="20" fill="#FFFFFF" fill-opacity="0.78"/>
  <text x="202" y="121" text-anchor="middle" fill="#7A6065" font-family="'PingFang SC','Noto Sans SC',sans-serif" font-size="20" font-weight="600">FemTech Open Source</text>

  <text x="112" y="250" fill="#2D1D22" font-family="'PingFang SC','Noto Sans SC',sans-serif" font-size="88" font-weight="700">月知会</text>
  <text x="112" y="338" fill="#2D1D22" font-family="Inter,Arial,sans-serif" font-size="76" font-weight="700">FlowSense</text>
  <text x="112" y="416" fill="#6E5760" font-family="'PingFang SC','Noto Sans SC',sans-serif" font-size="32" font-weight="500">记录月经，理解身体。</text>
  <text x="112" y="474" fill="#6E5760" font-family="'PingFang SC','Noto Sans SC',sans-serif" font-size="28" font-weight="400">从经期记录、强度建模到女性健康百科的一体化开源项目</text>

  <g opacity="0.98">
    <rect x="112" y="560" width="192" height="110" rx="26" fill="#FFFFFF" fill-opacity="0.82"/>
    <text x="144" y="610" fill="#7A6065" font-family="Inter,Arial,sans-serif" font-size="18" font-weight="600">Record</text>
    <text x="144" y="646" fill="#2D1D22" font-family="'PingFang SC','Noto Sans SC',sans-serif" font-size="28" font-weight="700">按日记录</text>
    <text x="144" y="682" fill="#6E5760" font-family="'PingFang SC','Noto Sans SC',sans-serif" font-size="18">出血 · 症状 · 用品</text>
  </g>

  <g opacity="0.98">
    <rect x="328" y="560" width="192" height="110" rx="26" fill="#FFFFFF" fill-opacity="0.82"/>
    <text x="360" y="610" fill="#7A6065" font-family="Inter,Arial,sans-serif" font-size="18" font-weight="600">Model</text>
    <text x="360" y="646" fill="#2D1D22" font-family="'PingFang SC','Noto Sans SC',sans-serif" font-size="28" font-weight="700">强度建模</text>
    <text x="360" y="682" fill="#6E5760" font-family="'PingFang SC','Noto Sans SC',sans-serif" font-size="18">把感受转成数据</text>
  </g>

  <g opacity="0.98">
    <rect x="544" y="560" width="192" height="110" rx="26" fill="#FFFFFF" fill-opacity="0.82"/>
    <text x="576" y="610" fill="#7A6065" font-family="Inter,Arial,sans-serif" font-size="18" font-weight="600">Explain</text>
    <text x="576" y="646" fill="#2D1D22" font-family="'PingFang SC','Noto Sans SC',sans-serif" font-size="28" font-weight="700">知识解释</text>
    <text x="576" y="682" fill="#6E5760" font-family="'PingFang SC','Noto Sans SC',sans-serif" font-size="18">百科 · 问答 · 趋势</text>
  </g>

  <g>
    <rect x="930" y="126" width="500" height="640" rx="42" fill="url(#accent)"/>
    <rect x="960" y="160" width="440" height="576" rx="34" fill="white" fill-opacity="0.12"/>
    <rect x="1002" y="214" width="356" height="58" rx="18" fill="white" fill-opacity="0.14"/>
    <text x="1038" y="250" fill="#FFF5F1" font-family="'PingFang SC','Noto Sans SC',sans-serif" font-size="26" font-weight="700">月知会周期记录界面</text>

    <rect x="1002" y="304" width="356" height="138" rx="28" fill="#FFF8F4"/>
    <path d="M1038 382C1076 350 1115 410 1152 372C1185 338 1221 320 1260 362C1283 386 1307 392 1324 348" stroke="#A8435B" stroke-width="10" stroke-linecap="round"/>
    <circle cx="1152" cy="372" r="12" fill="#D86A72"/>
    <text x="1036" y="344" fill="#7A6065" font-family="Inter,Arial,sans-serif" font-size="18" font-weight="600">Cycle Rhythm</text>
    <text x="1036" y="410" fill="#2D1D22" font-family="'PingFang SC','Noto Sans SC',sans-serif" font-size="24" font-weight="700">记录不是打卡，是理解身体的时间轴</text>

    <rect x="1002" y="470" width="168" height="108" rx="24" fill="#FFF3EE"/>
    <text x="1030" y="516" fill="#7A6065" font-family="Inter,Arial,sans-serif" font-size="18" font-weight="600">Bleeding</text>
    <text x="1030" y="556" fill="#2D1D22" font-family="'PingFang SC','Noto Sans SC',sans-serif" font-size="28" font-weight="700">强度中等</text>
    <text x="1030" y="588" fill="#6E5760" font-family="'PingFang SC','Noto Sans SC',sans-serif" font-size="18">用品事件参与计算</text>

    <rect x="1190" y="470" width="168" height="108" rx="24" fill="#FFF3EE"/>
    <text x="1218" y="516" fill="#7A6065" font-family="Inter,Arial,sans-serif" font-size="18" font-weight="600">Symptoms</text>
    <text x="1218" y="556" fill="#2D1D22" font-family="'PingFang SC','Noto Sans SC',sans-serif" font-size="28" font-weight="700">轻度痛经</text>
    <text x="1218" y="588" fill="#6E5760" font-family="'PingFang SC','Noto Sans SC',sans-serif" font-size="18">情绪与疲劳同步记录</text>

    <rect x="1002" y="610" width="356" height="82" rx="24" fill="#2D1D22" fill-opacity="0.16"/>
    <text x="1030" y="660" fill="#FFF5F1" font-family="'PingFang SC','Noto Sans SC',sans-serif" font-size="24" font-weight="700">Web · 小程序 · Flutter · 内容站</text>
  </g>

  <text x="112" y="816" fill="#7A6065" font-family="Inter,Arial,sans-serif" font-size="22" font-weight="600">Open-source body data infrastructure for menstrual health</text>
</svg>
